<svg width="38" height="38" viewBox="0 0 38 38" fill="none" xmlns="http://www.w3.org/2000/svg">
<path d="M37.4832 32.8534L30.0831 25.4545C29.7491 25.1206 29.2963 24.9351 28.8212 24.9351H27.6114C29.66 22.3154 30.8773 19.0204 30.8773 15.436C30.8773 6.90909 23.967 0 15.4386 0C6.91027 0 0 6.90909 0 15.436C0 23.9629 6.91027 30.872 15.4386 30.872C19.0237 30.872 22.3192 29.6549 24.9393 27.6067V28.8163C24.9393 29.2913 25.1249 29.744 25.4589 30.0779L32.859 37.4768C33.5568 38.1744 34.685 38.1744 35.3752 37.4768L37.4758 35.3766C38.1735 34.679 38.1735 33.551 37.4832 32.8534ZM15.4386 24.9351C10.191 24.9351 5.93793 20.6902 5.93793 15.436C5.93793 10.1892 10.1836 5.93692 15.4386 5.93692C20.6863 5.93692 24.9393 10.1818 24.9393 15.436C24.9393 20.6827 20.6937 24.9351 15.4386 24.9351Z" fill="white"/>
</svg>
